<mxfile host="app.diagrams.net" agent="Mozilla/5.0 (Windows NT 10.0; Win64; x64) AppleWebKit/537.36 (KHTML, like Gecko) Chrome/135.0.0.0 Safari/537.36 Edg/135.0.0.0" version="26.1.3">
  <diagram name="第 1 页" id="VDQePpslGdlmXo0fiMke">
    <mxGraphModel dx="1213" dy="768" grid="1" gridSize="10" guides="1" tooltips="1" connect="1" arrows="1" fold="1" page="1" pageScale="1" pageWidth="827" pageHeight="1169" math="0" shadow="0">
      <root>
        <mxCell id="0" />
        <mxCell id="1" parent="0" />
        <mxCell id="0cAS2473WhrVDvCccrYx-1" value="阿里云mqtt服务器" style="rounded=1;whiteSpace=wrap;html=1;fillColor=#f8cecc;strokeColor=#b85450;" vertex="1" parent="1">
          <mxGeometry x="330" y="150" width="120" height="60" as="geometry" />
        </mxCell>
        <mxCell id="0cAS2473WhrVDvCccrYx-2" value="mysql" style="shape=cylinder3;whiteSpace=wrap;html=1;boundedLbl=1;backgroundOutline=1;size=15;" vertex="1" parent="1">
          <mxGeometry x="50" y="360" width="60" height="80" as="geometry" />
        </mxCell>
        <mxCell id="0cAS2473WhrVDvCccrYx-3" value="mysql" style="shape=cylinder3;whiteSpace=wrap;html=1;boundedLbl=1;backgroundOutline=1;size=15;" vertex="1" parent="1">
          <mxGeometry x="370" y="360" width="60" height="80" as="geometry" />
        </mxCell>
        <mxCell id="0cAS2473WhrVDvCccrYx-5" value="" style="endArrow=classic;html=1;rounded=0;exitX=1;exitY=0;exitDx=0;exitDy=15;exitPerimeter=0;entryX=0.842;entryY=1.017;entryDx=0;entryDy=0;entryPerimeter=0;" edge="1" parent="1" source="0cAS2473WhrVDvCccrYx-3" target="0cAS2473WhrVDvCccrYx-1">
          <mxGeometry width="50" height="50" relative="1" as="geometry">
            <mxPoint x="420" y="350" as="sourcePoint" />
            <mxPoint x="440" y="370" as="targetPoint" />
          </mxGeometry>
        </mxCell>
        <mxCell id="0cAS2473WhrVDvCccrYx-6" value="本地发送控制指令" style="edgeLabel;html=1;align=center;verticalAlign=middle;resizable=0;points=[];" vertex="1" connectable="0" parent="0cAS2473WhrVDvCccrYx-5">
          <mxGeometry x="0.0366" y="1" relative="1" as="geometry">
            <mxPoint x="-5" y="-12" as="offset" />
          </mxGeometry>
        </mxCell>
        <mxCell id="0cAS2473WhrVDvCccrYx-7" value="" style="endArrow=classic;html=1;rounded=0;entryX=1;entryY=0;entryDx=0;entryDy=0;" edge="1" parent="1" target="0cAS2473WhrVDvCccrYx-23">
          <mxGeometry width="50" height="50" relative="1" as="geometry">
            <mxPoint x="450" y="180" as="sourcePoint" />
            <mxPoint x="720" y="180" as="targetPoint" />
          </mxGeometry>
        </mxCell>
        <mxCell id="0cAS2473WhrVDvCccrYx-8" value="python脚本mqtt订阅，python-plc执行" style="edgeLabel;html=1;align=center;verticalAlign=middle;resizable=0;points=[];" vertex="1" connectable="0" parent="0cAS2473WhrVDvCccrYx-7">
          <mxGeometry x="-0.0221" y="7" relative="1" as="geometry">
            <mxPoint x="30" y="-2" as="offset" />
          </mxGeometry>
        </mxCell>
        <mxCell id="0cAS2473WhrVDvCccrYx-9" value="" style="endArrow=classic;html=1;rounded=0;entryX=0;entryY=0.75;entryDx=0;entryDy=0;exitX=1;exitY=0;exitDx=0;exitDy=15;exitPerimeter=0;" edge="1" parent="1" source="0cAS2473WhrVDvCccrYx-2" target="0cAS2473WhrVDvCccrYx-1">
          <mxGeometry width="50" height="50" relative="1" as="geometry">
            <mxPoint x="90" y="360" as="sourcePoint" />
            <mxPoint x="140" y="310" as="targetPoint" />
          </mxGeometry>
        </mxCell>
        <mxCell id="0cAS2473WhrVDvCccrYx-10" value="远程发送控制指令" style="edgeLabel;html=1;align=center;verticalAlign=middle;resizable=0;points=[];" vertex="1" connectable="0" parent="0cAS2473WhrVDvCccrYx-9">
          <mxGeometry x="-0.0318" relative="1" as="geometry">
            <mxPoint x="14" y="-10" as="offset" />
          </mxGeometry>
        </mxCell>
        <mxCell id="0cAS2473WhrVDvCccrYx-11" value="" style="endArrow=classic;html=1;rounded=0;exitX=0;exitY=0;exitDx=0;exitDy=0;entryX=0.145;entryY=0;entryDx=0;entryDy=4.35;entryPerimeter=0;strokeColor=#33FF33;" edge="1" parent="1" source="0cAS2473WhrVDvCccrYx-1" target="0cAS2473WhrVDvCccrYx-2">
          <mxGeometry width="50" height="50" relative="1" as="geometry">
            <mxPoint x="180" y="450" as="sourcePoint" />
            <mxPoint x="230" y="400" as="targetPoint" />
          </mxGeometry>
        </mxCell>
        <mxCell id="0cAS2473WhrVDvCccrYx-12" value="订阅主题一类主题" style="edgeLabel;html=1;align=center;verticalAlign=middle;resizable=0;points=[];fontColor=#33FF33;" vertex="1" connectable="0" parent="0cAS2473WhrVDvCccrYx-11">
          <mxGeometry x="-0.001" y="-3" relative="1" as="geometry">
            <mxPoint y="-1" as="offset" />
          </mxGeometry>
        </mxCell>
        <mxCell id="0cAS2473WhrVDvCccrYx-13" value="" style="endArrow=classic;html=1;rounded=0;exitX=0.331;exitY=1.017;exitDx=0;exitDy=0;exitPerimeter=0;strokeColor=#33FF33;" edge="1" parent="1" source="0cAS2473WhrVDvCccrYx-1">
          <mxGeometry width="50" height="50" relative="1" as="geometry">
            <mxPoint x="390" y="420" as="sourcePoint" />
            <mxPoint x="370" y="380" as="targetPoint" />
          </mxGeometry>
        </mxCell>
        <mxCell id="0cAS2473WhrVDvCccrYx-17" value="&lt;font style=&quot;color: rgb(51, 255, 51);&quot;&gt;本地完成主题订阅&lt;/font&gt;" style="edgeLabel;html=1;align=center;verticalAlign=middle;resizable=0;points=[];" vertex="1" connectable="0" parent="0cAS2473WhrVDvCccrYx-13">
          <mxGeometry x="-0.0139" relative="1" as="geometry">
            <mxPoint as="offset" />
          </mxGeometry>
        </mxCell>
        <mxCell id="0cAS2473WhrVDvCccrYx-14" value="PLC设备" style="ellipse;shape=cloud;whiteSpace=wrap;html=1;" vertex="1" parent="1">
          <mxGeometry x="880" y="280" width="120" height="80" as="geometry" />
        </mxCell>
        <mxCell id="0cAS2473WhrVDvCccrYx-15" value="" style="endArrow=classic;html=1;rounded=0;entryX=1;entryY=0.75;entryDx=0;entryDy=0;exitX=0;exitY=0;exitDx=0;exitDy=0;strokeColor=#33FF33;" edge="1" parent="1" source="0cAS2473WhrVDvCccrYx-23" target="0cAS2473WhrVDvCccrYx-1">
          <mxGeometry width="50" height="50" relative="1" as="geometry">
            <mxPoint x="660" y="390" as="sourcePoint" />
            <mxPoint x="710" y="340" as="targetPoint" />
          </mxGeometry>
        </mxCell>
        <mxCell id="0cAS2473WhrVDvCccrYx-16" value="python-plc脚本端口监控，发布消息" style="edgeLabel;html=1;align=center;verticalAlign=middle;resizable=0;points=[];fontColor=#33FF33;" vertex="1" connectable="0" parent="0cAS2473WhrVDvCccrYx-15">
          <mxGeometry x="-0.1042" relative="1" as="geometry">
            <mxPoint x="42" y="37" as="offset" />
          </mxGeometry>
        </mxCell>
        <mxCell id="0cAS2473WhrVDvCccrYx-18" value="本地mqtt服务器" style="rounded=1;whiteSpace=wrap;html=1;fillColor=#dae8fc;strokeColor=#6c8ebf;" vertex="1" parent="1">
          <mxGeometry x="330" y="555" width="120" height="60" as="geometry" />
        </mxCell>
        <mxCell id="0cAS2473WhrVDvCccrYx-19" value="" style="endArrow=classic;html=1;rounded=0;" edge="1" parent="1">
          <mxGeometry width="50" height="50" relative="1" as="geometry">
            <mxPoint x="430" y="420" as="sourcePoint" />
            <mxPoint x="430" y="555" as="targetPoint" />
            <Array as="points" />
          </mxGeometry>
        </mxCell>
        <mxCell id="0cAS2473WhrVDvCccrYx-21" value="" style="endArrow=classic;html=1;rounded=0;strokeColor=#33FF33;" edge="1" parent="1">
          <mxGeometry width="50" height="50" relative="1" as="geometry">
            <mxPoint x="369" y="556" as="sourcePoint" />
            <mxPoint x="370" y="420" as="targetPoint" />
          </mxGeometry>
        </mxCell>
        <mxCell id="0cAS2473WhrVDvCccrYx-22" value="" style="endArrow=classic;html=1;rounded=0;entryX=1.008;entryY=0.122;entryDx=0;entryDy=0;entryPerimeter=0;exitX=0;exitY=1;exitDx=0;exitDy=0;strokeColor=#33FF33;" edge="1" parent="1" source="0cAS2473WhrVDvCccrYx-23" target="0cAS2473WhrVDvCccrYx-18">
          <mxGeometry width="50" height="50" relative="1" as="geometry">
            <mxPoint x="760" y="380" as="sourcePoint" />
            <mxPoint x="810" y="330" as="targetPoint" />
          </mxGeometry>
        </mxCell>
        <mxCell id="0cAS2473WhrVDvCccrYx-23" value="" style="rounded=1;whiteSpace=wrap;html=1;" vertex="1" parent="1">
          <mxGeometry x="590" y="300" width="120" height="60" as="geometry" />
        </mxCell>
        <mxCell id="0cAS2473WhrVDvCccrYx-24" value="&lt;font style=&quot;color: rgb(51, 255, 51);&quot;&gt;python-plc脚本端口监控，发布消息&lt;/font&gt;" style="edgeLabel;html=1;align=center;verticalAlign=middle;resizable=0;points=[];" vertex="1" connectable="0" parent="1">
          <mxGeometry x="569.9999999999999" y="370.00000000000006" as="geometry" />
        </mxCell>
        <mxCell id="0cAS2473WhrVDvCccrYx-25" value="" style="endArrow=classic;html=1;rounded=0;entryX=1;entryY=1;entryDx=0;entryDy=0;" edge="1" parent="1" target="0cAS2473WhrVDvCccrYx-23">
          <mxGeometry width="50" height="50" relative="1" as="geometry">
            <mxPoint x="450" y="610" as="sourcePoint" />
            <mxPoint x="790" y="380" as="targetPoint" />
          </mxGeometry>
        </mxCell>
        <mxCell id="0cAS2473WhrVDvCccrYx-26" value="python脚本mqtt订阅，python-plc执行" style="edgeLabel;html=1;align=center;verticalAlign=middle;resizable=0;points=[];" vertex="1" connectable="0" parent="1">
          <mxGeometry x="689.9977210722957" y="430.00242915314135" as="geometry" />
        </mxCell>
        <mxCell id="0cAS2473WhrVDvCccrYx-27" value="" style="endArrow=classic;html=1;rounded=0;exitX=0.16;exitY=0.55;exitDx=0;exitDy=0;exitPerimeter=0;entryX=0.997;entryY=0.383;entryDx=0;entryDy=0;entryPerimeter=0;" edge="1" parent="1" source="0cAS2473WhrVDvCccrYx-14" target="0cAS2473WhrVDvCccrYx-23">
          <mxGeometry width="50" height="50" relative="1" as="geometry">
            <mxPoint x="740" y="360" as="sourcePoint" />
            <mxPoint x="790" y="310" as="targetPoint" />
          </mxGeometry>
        </mxCell>
        <mxCell id="0cAS2473WhrVDvCccrYx-28" value="python监听" style="edgeLabel;html=1;align=center;verticalAlign=middle;resizable=0;points=[];" vertex="1" connectable="0" parent="0cAS2473WhrVDvCccrYx-27">
          <mxGeometry x="0.001" y="-1" relative="1" as="geometry">
            <mxPoint as="offset" />
          </mxGeometry>
        </mxCell>
        <mxCell id="0cAS2473WhrVDvCccrYx-29" value="保证远端可用" style="text;html=1;align=center;verticalAlign=middle;whiteSpace=wrap;rounded=0;" vertex="1" parent="1">
          <mxGeometry x="355" y="120" width="90" height="30" as="geometry" />
        </mxCell>
        <mxCell id="0cAS2473WhrVDvCccrYx-30" value="保证本地可用" style="text;html=1;align=center;verticalAlign=middle;whiteSpace=wrap;rounded=0;" vertex="1" parent="1">
          <mxGeometry x="355" y="615" width="90" height="30" as="geometry" />
        </mxCell>
      </root>
    </mxGraphModel>
  </diagram>
</mxfile>
